<?xml version="1.0" encoding="iso-8859-1"?>
<!-- Generator: Adobe Illustrator 21.0.0, SVG Export Plug-In . SVG Version: 6.00 Build 0)  -->
<svg version="1.1" id="Capa_1" xmlns="http://www.w3.org/2000/svg" xmlns:xlink="http://www.w3.org/1999/xlink" x="0px" y="0px"
	 viewBox="0 0 512 512" style="enable-background:new 0 0 512 512;" xml:space="preserve">
<g id="XMLID_668_">
	<path id="XMLID_669_" style="fill:#E79732;" d="M178.106,456.2c4.498,31.543,31.607,55.798,64.393,55.798
		c32.786,0,59.895-24.255,64.393-55.798H178.106z"/>
	<path id="XMLID_670_" style="fill:#DD801B;" d="M266.517,456.2c-3.533,24.763-20.996,45.032-44.202,52.598
		c6.361,2.087,13.137,3.202,20.184,3.202c32.788,0,59.888-24.256,64.386-55.8H266.517z"/>
	<g id="XMLID_671_">
		<path id="XMLID_672_" style="fill:#FAAA3C;" d="M242.499,90.038c-24.824,0-45.02-20.195-45.02-45.019S217.675,0,242.499,0
			s45.02,20.196,45.02,45.02S267.323,90.038,242.499,90.038z M242.499,27.488c-9.667,0-17.532,7.865-17.532,17.532
			s7.865,17.531,17.532,17.531c9.667,0,17.532-7.864,17.532-17.531S252.166,27.488,242.499,27.488z"/>
	</g>
	<path id="XMLID_675_" style="fill:#F1DD47;" d="M408.745,436.459H76.253c0-16.163,6.146-30.885,16.24-41.957
		c9.654-10.599,15.096-24.354,15.096-38.692V219.482c0-37.251,15.107-70.973,39.516-95.393
		c24.409-24.42,58.142-39.516,95.393-39.516c59,0,109.159,37.889,127.477,90.655c4.816,13.865,7.433,28.752,7.433,44.255V355.81
		c0,14.338,5.443,28.092,15.096,38.692c5.047,5.531,9.104,11.985,11.908,19.066C407.205,420.659,408.745,428.378,408.745,436.459z"
		/>
	<path id="XMLID_676_" style="fill:#EFC40F;" d="M408.745,436.459h-21.188c0-8.081-1.539-15.8-4.332-22.892
		c-2.804-7.081-6.861-13.535-11.908-19.066c-9.654-10.599-15.096-24.354-15.096-38.692V219.482c0-15.503-2.617-30.39-7.433-44.255
		C331.581,125.65,286.259,89.201,231.9,84.99c3.497-0.275,7.037-0.418,10.599-0.418c59,0,109.159,37.889,127.477,90.655
		c4.816,13.865,7.433,28.752,7.433,44.255V355.81c0,14.338,5.443,28.092,15.096,38.692c5.047,5.531,9.104,11.985,11.908,19.066
		C407.205,420.659,408.745,428.378,408.745,436.459z"/>
	<path id="XMLID_677_" style="fill:#EFC40F;" d="M377.409,219.482v102.65L263.082,436.459H108.755l261.221-261.232
		C374.792,189.092,377.409,203.979,377.409,219.482z"/>
	<rect id="XMLID_678_" x="107.589" y="241.824" style="fill:#FAAA3C;" width="269.819" height="67.015"/>
	<polygon id="XMLID_679_" style="fill:#E79732;" points="377.409,241.824 377.409,308.839 236.374,308.839 303.379,241.824 	"/>
	<g id="XMLID_680_">
		<g id="XMLID_681_">
			<circle style="fill:#EB5777;" cx="377.091" cy="182.16" r="82.765"/>
		</g>
		<path id="XMLID_682_" style="fill:#EBEEF2;" d="M389.172,205.86h-4.079v-55.126c0-2.702-1.411-5.207-3.721-6.607
			c-2.312-1.401-5.183-1.493-7.579-0.243l-12.356,6.447c-3.783,1.974-5.249,6.641-3.276,10.424
			c1.973,3.783,6.639,5.249,10.425,3.276l1.055-0.551v42.38h-4.079c-4.268,0-7.726,3.459-7.726,7.726s3.459,7.726,7.726,7.726
			h23.612c4.268,0,7.726-3.459,7.726-7.726S393.44,205.86,389.172,205.86z"/>
	</g>
	<path style="fill:#FFEB9B;" d="M421.859,465.981H63.139c-6.072,0-10.995-4.923-10.995-10.995v-24.101
		c0-6.072,4.923-10.995,10.995-10.995h358.72c6.072,0,10.995,4.923,10.995,10.995v24.101
		C432.854,461.058,427.931,465.981,421.859,465.981z"/>
</g>
<g>
</g>
<g>
</g>
<g>
</g>
<g>
</g>
<g>
</g>
<g>
</g>
<g>
</g>
<g>
</g>
<g>
</g>
<g>
</g>
<g>
</g>
<g>
</g>
<g>
</g>
<g>
</g>
<g>
</g>
</svg>
